<svg width="1351" height="996" viewBox="0 0 1351 996" fill="none" xmlns="http://www.w3.org/2000/svg">
<g clip-path="url(#clip0_0_3)">
<path d="M1182.5 367C1150.63 330.285 1175.53 156.927 1019.52 96.1501C687.03 -33.3879 517.864 -9.3073 210 74C11.3722 197.486 -39.5243 246.302 59.5097 415.867C155.795 550.258 -58.4933 473.229 16.139 909.5C229.977 1023.41 386.578 1026.39 713.052 953.497C1018.68 908.938 1025.59 905.605 1182.5 803C1233.03 720.666 1214.37 403.715 1182.5 367Z" fill="#CEBBE1"/>
<path d="M533.539 79.0443C546.613 79.0443 557.212 68.2232 557.212 54.8748C557.212 41.5263 546.613 30.7052 533.539 30.7052C520.464 30.7052 509.866 41.5263 509.866 54.8748C509.866 68.2232 520.464 79.0443 533.539 79.0443Z" fill="#3F3D56"/>
<path d="M615.318 79.0443C628.393 79.0443 638.991 68.2232 638.991 54.8748C638.991 41.5263 628.393 30.7052 615.318 30.7052C602.244 30.7052 591.645 41.5263 591.645 54.8748C591.645 68.2232 602.244 79.0443 615.318 79.0443Z" fill="#3F3D56"/>
<path d="M697.098 79.0443C710.172 79.0443 720.771 68.2232 720.771 54.8748C720.771 41.5263 710.172 30.7052 697.098 30.7052C684.024 30.7052 673.425 41.5263 673.425 54.8748C673.425 68.2232 684.024 79.0443 697.098 79.0443Z" fill="#3F3D56"/>
<path d="M671.89 407.191C666.236 407.184 660.815 404.938 656.816 400.945C652.818 396.952 650.569 391.538 650.563 385.891V309.567C650.563 303.918 652.81 298.5 656.809 294.506C660.809 290.511 666.234 288.267 671.89 288.267C677.546 288.267 682.971 290.511 686.97 294.506C690.97 298.5 693.217 303.918 693.217 309.567V385.891C693.211 391.538 690.961 396.952 686.963 400.945C682.965 404.938 677.544 407.184 671.89 407.191V407.191Z" fill="#8C40D5"/>
<path d="M742.091 407.191C736.437 407.184 731.016 404.938 727.018 400.945C723.02 396.952 720.771 391.538 720.764 385.891V309.567C720.764 303.918 723.011 298.5 727.011 294.506C731.011 290.511 736.435 288.267 742.091 288.267C747.748 288.267 753.172 290.511 757.172 294.506C761.172 298.5 763.419 303.918 763.419 309.567V385.891C763.412 391.538 761.163 396.952 757.165 400.945C753.167 404.938 747.746 407.184 742.091 407.191V407.191Z" fill="#8C40D5"/>
<path d="M812.293 288.267C806.638 288.272 801.216 290.517 797.217 294.511C793.219 298.504 790.97 303.919 790.966 309.567V385.891C790.966 391.54 793.213 396.958 797.212 400.952C801.212 404.947 806.637 407.191 812.293 407.191C817.949 407.191 823.374 404.947 827.374 400.952C831.373 396.958 833.62 391.54 833.62 385.891V309.567C833.616 303.919 831.367 298.504 827.369 294.511C823.37 290.517 817.948 288.272 812.293 288.267V288.267Z" fill="#E6E6E6"/>
<path d="M882.495 288.267C876.84 288.272 871.418 290.517 867.419 294.511C863.421 298.504 861.172 303.919 861.168 309.567V385.891C861.168 391.54 863.415 396.958 867.414 400.952C871.414 404.947 876.839 407.191 882.495 407.191C888.151 407.191 893.576 404.947 897.575 400.952C901.575 396.958 903.822 391.54 903.822 385.891V309.567C903.817 303.919 901.569 298.504 897.571 294.511C893.572 290.517 888.15 288.272 882.495 288.267V288.267Z" fill="#E6E6E6"/>
<path d="M952.697 407.191C947.042 407.184 941.621 404.938 937.623 400.945C933.625 396.952 931.376 391.538 931.369 385.891V309.567C931.369 303.918 933.616 298.5 937.616 294.506C941.616 290.511 947.04 288.267 952.697 288.267C958.353 288.267 963.777 290.511 967.777 294.506C971.777 298.5 974.024 303.918 974.024 309.567V385.891C974.017 391.538 971.768 396.952 967.77 400.945C963.772 404.938 958.351 407.184 952.697 407.191Z" fill="#E6E6E6"/>
<path d="M1075.33 422.278H549.259V425.828H1075.33V422.278Z" fill="#3F3D56"/>
<path d="M1075.33 269.63H549.259V273.18H1075.33V269.63Z" fill="#3F3D56"/>
<path d="M812.293 303.266C806.638 303.27 801.216 305.516 797.217 309.509C793.219 313.503 790.97 318.918 790.966 324.566V385.891C790.966 391.54 793.213 396.958 797.212 400.952C801.212 404.947 806.637 407.191 812.293 407.191C817.949 407.191 823.374 404.947 827.374 400.952C831.373 396.958 833.62 391.54 833.62 385.891V324.566C833.616 318.918 831.367 313.503 827.369 309.509C823.37 305.516 817.948 303.27 812.293 303.266V303.266Z" fill="#8C40D5"/>
<path d="M882.495 345.865C876.84 345.87 871.418 348.115 867.419 352.109C863.421 356.102 861.172 361.517 861.168 367.165V385.891C861.168 391.54 863.415 396.958 867.414 400.952C871.414 404.947 876.839 407.191 882.495 407.191C888.151 407.191 893.576 404.947 897.575 400.952C901.575 396.958 903.822 391.54 903.822 385.891V367.165C903.817 361.517 901.569 356.102 897.571 352.109C893.572 348.115 888.15 345.87 882.495 345.865V345.865Z" fill="#8C40D5"/>
<path d="M1071.95 369.029C1083.73 369.029 1093.28 359.493 1093.28 347.729C1093.28 335.966 1083.73 326.429 1071.95 326.429C1060.17 326.429 1050.62 335.966 1050.62 347.729C1050.62 359.493 1060.17 369.029 1071.95 369.029Z" fill="#F2F2F2"/>
<path d="M549.436 369.029C561.215 369.029 570.764 359.493 570.764 347.729C570.764 335.966 561.215 326.429 549.436 326.429C537.658 326.429 528.109 335.966 528.109 347.729C528.109 359.493 537.658 369.029 549.436 369.029Z" fill="#F2F2F2"/>
<path d="M342.659 489.901C343.954 487.907 344.795 485.655 345.124 483.301C345.453 480.948 345.262 478.551 344.563 476.28C343.864 474.008 342.675 471.917 341.079 470.154C339.484 468.392 337.521 467 335.328 466.076L280.492 326.756L253.739 344.6L313.409 475.756C312.1 479.537 312.225 483.666 313.761 487.361C315.298 491.056 318.137 494.06 321.743 495.804C325.348 497.547 329.469 497.909 333.324 496.822C337.179 495.734 340.5 493.271 342.659 489.901L342.659 489.901Z" fill="#A0616A"/>
<path d="M277.538 406.629L277.214 406.407C270.941 402.115 268.281 396.626 267.91 393.229C267.694 391.904 267.951 390.546 268.636 389.391L257.397 366.214L211.638 291.288L237.754 262.696L242.985 259.342C243.732 258.924 244.559 258.667 245.413 258.589C246.266 258.511 247.126 258.612 247.937 258.887C251.808 260.069 255.311 264.419 258.349 271.818C259.873 275.53 264.212 284.352 269.704 295.522C272.912 302.046 276.52 309.382 280.208 317.003C280.765 318.625 280.979 320.345 280.837 322.053C280.722 323.509 280.877 324.973 281.294 326.373C281.626 327.067 282.422 327.357 283.345 327.692C283.98 327.834 284.58 328.106 285.105 328.491C285.63 328.875 286.07 329.365 286.397 329.927C299.768 358.188 306.903 375.996 308.18 384.294C309.835 384.594 311.338 385.452 312.435 386.725C313.533 387.998 314.16 389.609 314.212 391.288C314.361 393.118 313.843 394.941 312.752 396.42C311.662 397.899 310.073 398.934 308.278 399.335L277.538 406.629Z" fill="#8C40D5"/>
<path d="M66.6329 844.42L79.8148 858.927L142.12 815.048L122.663 793.634L66.6329 844.42Z" fill="#A0616A"/>
<path d="M72.2789 830.668L94.7262 852.59L84.7831 861.602L89.5693 897.449C89.8059 899.22 89.4696 901.02 88.6096 902.586C87.7496 904.152 86.4107 905.402 84.7887 906.155C83.1666 906.907 81.3462 907.122 79.5932 906.768C77.8402 906.414 76.2464 905.51 75.0446 904.187L49.9694 876.593L55.4824 862.922L43.9596 869.979L34.5052 859.575L72.2789 830.668Z" fill="#2F2E41"/>
<path d="M222.388 959.235H242.004L251.34 883.668H222.388V959.235Z" fill="#A0616A"/>
<path d="M215.986 945.817L247.326 943.949V957.359L277.122 977.91C278.593 978.925 279.702 980.384 280.285 982.072C280.868 983.761 280.896 985.591 280.363 987.296C279.831 989.002 278.767 990.492 277.327 991.551C275.886 992.609 274.144 993.18 272.356 993.18H235.044L228.613 979.915L226.102 993.18H212.034L215.986 945.817Z" fill="#2F2E41"/>
<path d="M264.722 924.568C263.948 924.568 263.174 924.529 262.404 924.451L194.602 917.726C191.418 917.41 188.336 916.429 185.557 914.847C182.778 913.264 180.363 911.115 178.47 908.539C176.576 905.963 175.247 903.018 174.568 899.896C173.889 896.773 173.875 893.543 174.528 890.415L213.93 701.519C195.903 653.585 181.751 604.286 171.61 554.095C155.997 474.537 186.094 437.282 186.399 436.915L186.566 408.362L202.804 407.428L261.598 407.612L261.868 401.094L301.275 503.349L301.267 503.562L295.051 683.108L300.973 697.657L293.484 728.353L287.452 902.573C287.247 908.463 284.765 914.045 280.526 918.146C276.288 922.247 270.623 924.549 264.722 924.568H264.722Z" fill="#2F2E41"/>
<path d="M184.438 226.706L212.103 224.659C215.223 224.429 218.313 225.394 220.745 227.358C223.177 229.322 224.769 232.138 225.196 235.233L226.539 244.975L252.056 261.082L280.492 330.306L275.137 403.829L268.052 394.205L272.186 402.053L276.938 411.955L269.044 419.055L186.298 411.955L150.288 275.296L166.788 261.711L173.435 235.896C174.076 233.407 175.483 231.182 177.456 229.533C179.43 227.885 181.872 226.896 184.438 226.706V226.706Z" fill="#8C40D5"/>
<path d="M129.426 871.284C127.938 871.28 126.464 871.007 125.073 870.479C122.987 869.718 121.155 868.394 119.779 866.653C118.404 864.912 117.54 862.824 117.283 860.622L108.842 793.583C108.616 791.738 108.814 789.865 109.421 788.107C110.028 786.35 111.029 784.753 112.346 783.44L128.598 767.449L141.244 762.686L150.68 745.465L210.719 685.984L283.267 738.878L137.436 868.193C135.239 870.174 132.386 871.275 129.426 871.284Z" fill="#2F2E41"/>
<path d="M242.614 202.191L239.063 161.092C237.809 146.487 230.797 132.977 219.57 123.535C208.343 114.092 193.82 109.49 179.196 110.741C164.571 111.992 151.044 118.993 141.588 130.205C132.132 141.416 127.522 155.92 128.773 170.526L128.779 170.596C120.808 191.66 127.719 200.752 132.33 211.695C132.503 213.655 133.446 215.466 134.954 216.733C136.461 217.999 138.41 218.617 140.373 218.451L235.845 210.223C237.809 210.052 239.623 209.11 240.892 207.604C242.161 206.098 242.78 204.152 242.614 202.191V202.191Z" fill="#2F2E41"/>
<path d="M198.177 212.695C220.588 212.695 238.756 194.55 238.756 172.168C238.756 149.785 220.588 131.641 198.177 131.641C175.766 131.641 157.598 149.785 157.598 172.168C157.598 194.55 175.766 212.695 198.177 212.695Z" fill="#A0616A"/>
<path d="M252.392 163.255C251.381 151.706 245.824 141.029 236.941 133.567C228.058 126.105 216.574 122.467 205.009 123.45L196.778 124.16C185.214 125.169 174.524 130.719 167.052 139.59C159.581 148.462 155.938 159.931 156.922 171.482L156.994 172.305C163.521 175.982 169.426 176.093 174.387 170.806L178.886 153.704L181.505 170.192L190.496 169.417L192.769 160.789L194.092 169.107C207.128 178.389 229.662 171.461 252.463 164.077L252.392 163.255Z" fill="#2F2E41"/>
<path d="M162.46 520.598C160.434 519.352 158.706 517.677 157.398 515.692C156.091 513.707 155.235 511.46 154.891 509.108C154.546 506.757 154.723 504.359 155.407 502.083C156.091 499.807 157.267 497.709 158.851 495.936L152.211 348.53L180.391 351.252L182.809 495.291C185.615 498.147 187.275 501.931 187.474 505.927C187.673 509.922 186.398 513.852 183.889 516.972C181.381 520.091 177.814 522.183 173.865 522.851C169.915 523.52 165.857 522.718 162.46 520.598H162.46Z" fill="#A0616A"/>
<path d="M152.871 424.248C151.337 424.227 149.844 423.747 148.586 422.87C147.327 421.993 146.361 420.76 145.811 419.33C145.137 417.791 145.011 416.067 145.456 414.447C145.901 412.827 146.889 411.408 148.256 410.429C146.146 403.401 144.972 388.067 144.668 363.622C144.659 362.954 144.109 362.536 143.211 361.91C142.596 361.611 142.068 361.161 141.677 360.601C141.286 360.041 141.045 359.39 140.978 358.711C141.232 356.774 141.876 354.908 142.87 353.226C143.715 351.773 144.296 350.183 144.586 348.529C144.594 336.281 144.753 324.315 144.893 313.757C145.058 301.313 145.189 291.483 144.972 287.479C144.538 279.494 145.835 274.063 148.824 271.337C149.44 270.742 150.173 270.282 150.978 269.988C151.782 269.693 152.639 269.57 153.494 269.627L159.883 270.476L195.529 285.059L186.363 372.429L186.168 398.096C187.283 398.845 188.098 399.961 188.472 401.25C189.595 404.478 189.549 410.576 185.726 417.14L185.528 417.48L154.627 424.057C154.05 424.182 153.461 424.246 152.871 424.248V424.248Z" fill="#8C40D5"/>
<path d="M411.109 926.739L439.756 917.664C443.326 902.308 443.089 886.315 439.066 871.072C427.557 896.63 393.791 902.891 374.552 923.29C368.6 929.698 364.169 937.362 361.586 945.713C359.003 954.064 358.335 962.889 359.631 971.533L353.604 991.952C367.681 990.751 381.329 986.516 393.61 979.54C405.89 972.563 416.51 963.011 424.737 951.541C429.289 945.06 433.006 938.033 435.8 930.626C423.583 929.404 411.109 926.739 411.109 926.739Z" fill="#F2F2F2"/>
<path d="M380.497 888.981L402.085 868.098C398.424 852.765 391.07 838.555 380.662 826.704C381.774 854.705 354.348 875.349 346.237 902.176C343.772 910.563 343.228 919.396 344.645 928.021C346.063 936.646 349.406 944.842 354.426 952.001L358.15 972.962C370.212 965.617 380.537 955.748 388.413 944.034C396.289 932.32 401.529 919.04 403.771 905.109C404.951 897.281 405.14 889.337 404.332 881.462C392.852 885.81 380.497 888.981 380.497 888.981Z" fill="#F2F2F2"/>
</g>
<defs>
<clipPath id="clip0_0_3">
<rect width="1351" height="996" fill="white"/>
</clipPath>
</defs>
</svg>
