<svg width="1167" height="885" viewBox="0 0 1167 885" fill="none" xmlns="http://www.w3.org/2000/svg">
<g clip-path="url(#clip0_0_40)">
<path d="M933.5 770C1043.03 593.541 961.309 5.66571 600 21C238.691 36.3344 287.5 69.5 287.5 69.5C332.364 305.794 297.366 404.854 -9 446C40.6789 604.709 81.0694 695.14 400 885C731.204 886.423 884.111 874.856 933.5 770Z" fill="#CEBBE1"/>
<path d="M294.944 578.343L245.202 560.964C239.726 533.839 240.954 505.787 248.78 479.244C267.65 524.674 326.505 537.376 359.184 574.146C369.288 585.693 376.664 599.365 380.766 614.15C384.868 628.935 385.591 644.454 382.88 659.556L392.404 695.692C367.796 692.869 344.093 684.746 322.927 671.881C301.761 659.016 283.636 641.715 269.8 621.171C262.153 609.569 255.996 597.049 251.477 583.909C272.949 582.386 294.944 578.343 294.944 578.343Z" fill="#F2F2F2"/>
<path d="M633.122 166.09V563.32L631.742 579.86C629.323 608.571 617.16 635.592 597.272 656.44C594.452 659.39 591.502 662.183 588.422 664.82C584.631 668.09 580.643 671.125 576.482 673.91C574.102 675.51 571.662 677.02 569.182 678.45C554.76 686.779 538.83 692.166 522.312 694.3H403.952C394.533 694.308 385.431 690.901 378.332 684.71C374.818 681.651 371.873 677.995 369.632 673.91C366.502 668.178 364.865 661.751 364.872 655.22V166.09C364.885 155.727 369.008 145.792 376.336 138.464C383.664 131.136 393.599 127.013 403.962 127H594.042C594.492 127 594.932 127.01 595.382 127.02C595.672 127.03 595.962 127.04 596.252 127.07C596.642 127.08 597.032 127.11 597.412 127.15C597.902 127.18 598.382 127.23 598.862 127.29C599.302 127.35 599.742 127.41 600.182 127.48C600.272 127.49 600.352 127.51 600.442 127.52C601.002 127.61 601.562 127.71 602.112 127.83C602.662 127.94 603.222 128.07 603.762 128.21C604.152 128.31 604.552 128.42 604.942 128.53C604.952 128.53 604.972 128.54 604.982 128.54C606.132 128.88 607.272 129.27 608.392 129.72C608.742 129.85 609.092 130 609.432 130.15L609.582 130.21C609.862 130.33 610.132 130.45 610.402 130.58C611.212 130.95 612.012 131.36 612.802 131.79C614.102 132.506 615.36 133.294 616.572 134.15C616.962 134.42 617.342 134.71 617.712 135C618.022 135.23 618.332 135.47 618.632 135.73C618.658 135.743 618.681 135.76 618.702 135.78C618.742 135.81 618.782 135.85 618.822 135.88C619.092 136.09 619.352 136.31 619.602 136.53C620.092 136.95 620.572 137.39 621.042 137.84C621.172 137.96 621.302 138.08 621.432 138.21C621.562 138.33 621.682 138.46 621.812 138.59C621.942 138.71 622.062 138.84 622.182 138.96C622.254 139.022 622.321 139.088 622.382 139.16C622.742 139.54 623.092 139.93 623.432 140.32C623.862 140.81 624.282 141.31 624.672 141.82C625.012 142.24 625.332 142.66 625.642 143.09C625.932 143.48 626.202 143.87 626.472 144.27C626.545 144.37 626.611 144.473 626.672 144.58C626.952 144.99 627.212 145.41 627.472 145.83C628.122 146.89 628.712 147.99 629.252 149.1C629.452 149.52 629.642 149.93 629.822 150.35C630.052 150.86 630.262 151.37 630.462 151.88C630.542 152.07 630.612 152.27 630.682 152.46C630.792 152.75 630.892 153.04 630.992 153.33C631.102 153.65 631.212 153.98 631.312 154.3L631.552 155.08C631.692 155.55 631.812 156.01 631.932 156.48C632.002 156.76 632.072 157.04 632.132 157.33C632.602 159.372 632.906 161.449 633.042 163.54C633.052 163.8 633.072 164.05 633.082 164.31C633.112 164.9 633.122 165.49 633.122 166.09Z" fill="#3F3D56"/>
<path d="M362.16 304.968C360.994 304.967 359.876 304.503 359.052 303.678C358.227 302.854 357.763 301.736 357.762 300.569V270.657C357.761 270.079 357.874 269.506 358.095 268.972C358.315 268.437 358.639 267.952 359.048 267.542C359.456 267.133 359.941 266.809 360.476 266.587C361.01 266.366 361.582 266.252 362.16 266.252C362.739 266.252 363.311 266.366 363.845 266.587C364.379 266.809 364.865 267.133 365.273 267.542C365.682 267.952 366.006 268.437 366.226 268.972C366.447 269.506 366.56 270.079 366.559 270.657V300.569C366.558 301.736 366.094 302.854 365.269 303.678C364.445 304.503 363.327 304.967 362.16 304.968Z" fill="#3F3D56"/>
<path d="M361.281 246.903C360.114 246.902 358.996 246.438 358.172 245.613C357.347 244.789 356.883 243.671 356.882 242.504V212.592C356.884 211.427 357.348 210.309 358.173 209.486C358.997 208.662 360.115 208.2 361.281 208.2C362.446 208.2 363.564 208.662 364.389 209.486C365.214 210.309 365.678 211.427 365.68 212.592V242.504C365.678 243.671 365.214 244.789 364.39 245.613C363.565 246.438 362.447 246.902 361.281 246.903V246.903Z" fill="#3F3D56"/>
<path d="M469.291 141.533C469.292 140.367 469.756 139.249 470.58 138.424C471.405 137.599 472.523 137.135 473.689 137.134H503.602C504.768 137.134 505.887 137.597 506.712 138.422C507.537 139.247 508.001 140.366 508.001 141.533C508.001 142.699 507.537 143.818 506.712 144.643C505.887 145.468 504.768 145.932 503.602 145.932H473.689C472.523 145.93 471.405 145.466 470.58 144.642C469.756 143.817 469.292 142.699 469.291 141.533V141.533Z" fill="white"/>
<path d="M362.16 355.995C360.994 355.994 359.876 355.53 359.052 354.705C358.227 353.881 357.763 352.763 357.762 351.596V321.684C357.761 321.106 357.874 320.533 358.095 319.999C358.315 319.464 358.639 318.978 359.048 318.569C359.456 318.16 359.941 317.835 360.476 317.614C361.01 317.393 361.582 317.279 362.16 317.279C362.739 317.279 363.311 317.393 363.845 317.614C364.379 317.835 364.865 318.16 365.273 318.569C365.682 318.978 366.006 319.464 366.226 319.999C366.447 320.533 366.56 321.106 366.559 321.684V351.596C366.558 352.763 366.094 353.881 365.269 354.705C364.445 355.53 363.327 355.994 362.16 355.995V355.995Z" fill="#3F3D56"/>
<path d="M636.16 290.995C634.994 290.994 633.876 290.53 633.051 289.705C632.227 288.881 631.763 287.763 631.762 286.596V256.684C631.761 256.106 631.874 255.533 632.095 254.999C632.315 254.464 632.639 253.978 633.048 253.569C633.456 253.16 633.941 252.835 634.476 252.614C635.01 252.393 635.582 252.279 636.16 252.279C636.739 252.279 637.311 252.393 637.845 252.614C638.379 252.835 638.865 253.16 639.273 253.569C639.682 253.978 640.006 254.464 640.226 254.999C640.447 255.533 640.56 256.106 640.559 256.684V286.596C640.558 287.763 640.094 288.881 639.269 289.705C638.445 290.53 637.327 290.994 636.16 290.995V290.995Z" fill="#3F3D56"/>
<path d="M520.317 145.932C522.747 145.932 524.716 143.962 524.716 141.533C524.716 139.103 522.747 137.134 520.317 137.134C517.888 137.134 515.918 139.103 515.918 141.533C515.918 143.962 517.888 145.932 520.317 145.932Z" fill="white"/>
<path d="M613.666 180.202H384.342C384.077 180.197 383.824 180.087 383.639 179.897C383.453 179.707 383.349 179.453 383.349 179.187C383.349 178.922 383.453 178.667 383.639 178.477C383.824 178.287 384.077 178.178 384.342 178.172H613.666C613.931 178.178 614.184 178.287 614.369 178.477C614.555 178.667 614.659 178.922 614.659 179.187C614.659 179.453 614.555 179.707 614.369 179.897C614.184 180.087 613.931 180.197 613.666 180.202V180.202Z" fill="white"/>
<path d="M401.723 172.988C405.009 172.988 407.673 170.264 407.673 166.905C407.673 163.545 405.009 160.821 401.723 160.821C398.436 160.821 395.772 163.545 395.772 166.905C395.772 170.264 398.436 172.988 401.723 172.988Z" fill="white"/>
<path d="M422.279 172.988C425.565 172.988 428.229 170.264 428.229 166.905C428.229 163.545 425.565 160.821 422.279 160.821C418.992 160.821 416.328 163.545 416.328 166.905C416.328 170.264 418.992 172.988 422.279 172.988Z" fill="white"/>
<path d="M442.835 172.988C446.121 172.988 448.785 170.264 448.785 166.905C448.785 163.545 446.121 160.821 442.835 160.821C439.548 160.821 436.884 163.545 436.884 166.905C436.884 170.264 439.548 172.988 442.835 172.988Z" fill="white"/>
<path d="M601.289 162.329H586.687C586.398 162.335 586.122 162.454 585.92 162.661C585.717 162.867 585.604 163.145 585.604 163.435C585.604 163.724 585.717 164.002 585.92 164.209C586.122 164.416 586.398 164.535 586.687 164.54H601.289C601.579 164.535 601.854 164.416 602.057 164.209C602.26 164.002 602.373 163.724 602.373 163.435C602.373 163.145 602.26 162.867 602.057 162.661C601.854 162.454 601.579 162.335 601.289 162.329V162.329Z" fill="white"/>
<path d="M601.289 166.479H586.687C586.398 166.485 586.122 166.604 585.92 166.811C585.717 167.018 585.604 167.296 585.604 167.585C585.604 167.875 585.717 168.152 585.92 168.359C586.122 168.566 586.398 168.685 586.687 168.691H601.289C601.579 168.685 601.854 168.566 602.057 168.359C602.26 168.152 602.373 167.875 602.373 167.585C602.373 167.296 602.26 167.018 602.057 166.811C601.854 166.604 601.579 166.485 601.289 166.479V166.479Z" fill="white"/>
<path d="M601.289 170.624H586.687C586.398 170.63 586.122 170.749 585.92 170.956C585.717 171.162 585.604 171.44 585.604 171.73C585.604 172.019 585.717 172.297 585.92 172.504C586.122 172.711 586.398 172.83 586.687 172.835H601.289C601.579 172.83 601.854 172.711 602.057 172.504C602.26 172.297 602.373 172.019 602.373 171.73C602.373 171.44 602.26 171.162 602.057 170.956C601.854 170.749 601.579 170.63 601.289 170.624V170.624Z" fill="white"/>
<path d="M438.967 335.39C439.066 336.808 439.484 338.185 440.188 339.418C441.764 341.99 444.147 343.966 446.965 345.039C450.393 346.442 454.214 346.485 457.852 346.172C461.23 345.882 464.575 345.208 467.966 345.069C470.589 344.985 473.214 345.048 475.83 345.257C480.904 345.617 485.958 346.285 490.979 347.096C492.338 347.312 493.695 347.545 495.049 347.794C495.177 347.805 495.304 347.829 495.428 347.864C495.452 347.874 495.492 347.867 495.514 347.881C495.555 347.907 495.349 347.816 495.474 347.919C495.648 348.102 495.803 348.301 495.937 348.515L497.792 350.902C498.279 351.652 498.854 352.342 499.504 352.957C499.989 353.331 500.574 353.554 501.185 353.596C501.795 353.639 502.405 353.5 502.937 353.196C503.493 352.845 503.936 352.342 504.214 351.746C504.64 350.964 505.149 350.229 505.732 349.555C507.938 346.982 511.004 345.399 513.568 343.233C514.811 342.227 515.871 341.015 516.703 339.65C517.412 338.415 517.854 337.044 517.998 335.627C518.223 332.723 517.499 329.824 515.936 327.366C514.321 324.735 511.999 322.611 509.237 321.233C506.101 319.729 502.72 318.802 499.256 318.498C495.592 318.152 491.91 318.03 488.23 318.133C484.108 318.179 479.994 318.36 475.887 318.677C471.774 318.995 467.677 319.448 463.597 320.034C459.657 320.532 455.747 321.248 451.886 322.18C448.428 322.922 445.225 324.559 442.597 326.927C441.429 328.002 440.502 329.312 439.876 330.77C439.251 332.229 438.941 333.803 438.967 335.39Z" fill="#E6E6E6"/>
<path d="M496.138 325.779H457.12C456.347 325.78 455.606 326.087 455.059 326.634C454.512 327.181 454.205 327.922 454.204 328.695V329.166C454.205 329.939 454.512 330.68 455.059 331.227C455.606 331.773 456.347 332.081 457.12 332.082H496.138C496.911 332.081 497.653 331.773 498.199 331.227C498.746 330.68 499.054 329.939 499.055 329.166V328.695C499.054 327.922 498.746 327.181 498.199 326.634C497.652 326.087 496.911 325.78 496.138 325.779V325.779Z" fill="white"/>
<path d="M496.138 333.779H457.12C456.347 333.78 455.606 334.088 455.059 334.635C454.512 335.181 454.205 335.923 454.204 336.696V337.166C454.205 337.939 454.512 338.68 455.059 339.227C455.606 339.774 456.347 340.081 457.12 340.083H496.138C496.911 340.081 497.653 339.774 498.199 339.227C498.746 338.68 499.054 337.939 499.055 337.166V336.696C499.054 335.923 498.746 335.181 498.199 334.635C497.652 334.088 496.911 333.78 496.138 333.779V333.779Z" fill="white"/>
<path d="M577.15 277.39C577.051 278.808 576.633 280.185 575.928 281.418C574.353 283.99 571.97 285.966 569.152 287.039C565.724 288.442 561.903 288.485 558.265 288.172C554.886 287.882 551.542 287.208 548.151 287.069C545.528 286.985 542.903 287.048 540.287 287.257C535.213 287.617 530.159 288.285 525.138 289.096C523.778 289.312 522.421 289.545 521.067 289.794C520.939 289.805 520.813 289.829 520.689 289.864C520.665 289.874 520.625 289.867 520.602 289.881C520.562 289.907 520.768 289.815 520.643 289.919C520.469 290.102 520.313 290.301 520.179 290.515L518.325 292.902C517.838 293.652 517.263 294.342 516.612 294.957C516.128 295.331 515.543 295.554 514.932 295.596C514.321 295.639 513.711 295.5 513.18 295.196C512.624 294.845 512.181 294.342 511.903 293.746C511.477 292.964 510.968 292.229 510.385 291.555C508.179 288.982 505.113 287.399 502.548 285.233C501.306 284.227 500.246 283.015 499.414 281.65C498.704 280.415 498.263 279.044 498.119 277.627C497.894 274.723 498.617 271.824 500.18 269.366C501.796 266.735 504.117 264.611 506.88 263.233C510.015 261.729 513.396 260.802 516.861 260.498C520.525 260.152 524.207 260.03 527.886 260.133C532.008 260.179 536.123 260.36 540.23 260.677C544.343 260.995 548.439 261.448 552.52 262.034C556.46 262.532 560.369 263.248 564.23 264.18C567.689 264.922 570.892 266.559 573.52 268.927C574.688 270.002 575.615 271.312 576.24 272.77C576.866 274.229 577.176 275.803 577.15 277.39V277.39Z" fill="#E6E6E6"/>
<path d="M517.062 270.695V271.166C517.063 271.939 517.371 272.68 517.917 273.227C518.464 273.773 519.205 274.081 519.979 274.082H558.996C559.77 274.081 560.511 273.773 561.057 273.227C561.604 272.68 561.912 271.939 561.913 271.166V270.695C561.912 269.922 561.604 269.181 561.057 268.634C560.511 268.087 559.77 267.78 558.996 267.779H519.979C519.205 267.78 518.464 268.087 517.917 268.634C517.371 269.181 517.063 269.922 517.062 270.695Z" fill="white"/>
<path d="M517.062 278.696V279.166C517.063 279.939 517.371 280.68 517.917 281.227C518.464 281.774 519.205 282.081 519.979 282.083H558.996C559.77 282.081 560.511 281.774 561.057 281.227C561.604 280.68 561.912 279.939 561.913 279.166V278.696C561.912 277.923 561.604 277.181 561.057 276.635C560.511 276.088 559.77 275.78 558.996 275.779H519.979C519.205 275.78 518.464 276.088 517.917 276.635C517.371 277.181 517.063 277.923 517.062 278.696Z" fill="white"/>
<path d="M766.577 682.014L754.187 682.013L748.293 634.224L766.579 634.225L766.577 682.014Z" fill="#A0616A"/>
<path d="M766.247 677.965L753.027 672.595L752.637 672.435L745.337 677.965C741.331 677.964 737.479 679.511 734.585 682.281C731.692 685.052 729.98 688.833 729.807 692.835C729.787 693.055 729.787 693.285 729.787 693.515V694.025H769.737V677.965H766.247Z" fill="#2F2E41"/>
<path d="M737.561 670.484L725.874 674.596L704.452 631.472L721.702 625.403L737.561 670.484Z" fill="#A0616A"/>
<path d="M735.906 666.774L721.653 666.096L721.232 666.075L716.181 673.714C712.402 675.043 709.282 677.78 707.472 681.354C705.662 684.928 705.302 689.063 706.467 692.896C706.521 693.11 706.597 693.327 706.674 693.544L706.843 694.025L744.528 680.765L739.198 665.615L735.906 666.774Z" fill="#2F2E41"/>
<path d="M770.955 475.956C782.29 475.516 768.249 565.845 768.249 565.845C768.249 565.845 772.356 645.151 771.486 649.313C770.615 653.475 771.376 664.699 771.376 664.699C769.155 660.657 746.244 663.708 746.244 663.708L743.127 583.332L727.213 518.932L705.151 562.1L726.297 628.361C726.297 628.361 734.86 636.285 733.949 639.416C733.039 642.548 710.609 649.609 706.487 649.769C702.365 649.929 704.226 644.697 704.026 639.545C703.826 634.392 684.431 586.64 677.608 570.392C670.786 554.145 676.09 531.235 679.572 514.588C683.055 497.94 701.376 466.699 701.376 466.699C724.117 441.049 759.62 476.395 770.955 475.956Z" fill="#2F2E41"/>
<path d="M765.068 490.436C736.958 490.437 721.467 484.81 713.241 479.786C703.183 473.642 701.462 467.164 701.393 466.89L701.373 466.812L702.352 454.492L702.781 453.533C704.754 449.117 705.015 444.125 703.515 439.526L703.484 439.431L703.492 439.333L710.065 354.088L733.324 346.469L740.091 339.67L770.219 339.233L774.416 347.743L798.167 356.685L786.499 426.141L780.905 435.783L783.156 446.286L783.14 446.381L775.802 490.181L775.398 490.198C771.779 490.36 768.336 490.44 765.068 490.436Z" fill="#E6E6E6"/>
<path d="M776.786 310.559C775.882 317.15 772.397 323.113 767.099 327.138C761.801 331.162 755.121 332.919 748.529 332.021C741.936 331.124 735.969 327.646 731.939 322.352C727.909 317.059 726.145 310.381 727.035 303.788L727.084 303.431C728.124 296.926 731.68 291.09 736.984 287.182C742.288 283.275 748.916 281.609 755.437 282.544C761.959 283.479 767.851 286.941 771.844 292.181C775.836 297.422 777.608 304.022 776.778 310.558L776.786 310.559Z" fill="#A0616A"/>
<path d="M770.396 323.489C771.686 320.871 773.01 318.059 772.648 315.163C772.285 312.266 769.445 309.498 766.656 310.359C764.988 310.873 763.727 312.52 761.984 312.605C759.585 312.721 758.21 309.975 757.463 307.692L754.422 298.396C751.502 300.672 748.115 302.275 744.504 303.091C740.893 303.907 737.146 303.916 733.531 303.117C730.707 302.471 727.855 301.212 726.199 298.836C724.543 296.46 724.552 292.775 726.824 290.978C727.938 290.097 729.421 289.762 730.485 288.822C731.145 288.239 731.6 287.459 731.783 286.597C731.965 285.735 731.865 284.837 731.498 284.037C731.131 283.236 730.515 282.575 729.743 282.151C728.97 281.727 728.082 281.563 727.209 281.684L734.866 280.727L732.585 276.601C733.452 277.191 734.433 277.593 735.465 277.783C736.497 277.972 737.556 277.944 738.577 277.7C740.637 277.329 742.577 276.481 744.592 275.915C749.477 274.668 754.636 275.049 759.284 277.001C763.932 278.953 767.817 282.369 770.347 286.73C772.231 286.1 774.262 286.059 776.17 286.61C778.079 287.161 779.775 288.279 781.034 289.816C783.083 292.417 783.641 295.889 783.72 299.2C783.869 305.729 782.446 312.197 779.57 318.06C778.745 319.922 777.56 321.603 776.083 323.006C775.34 323.701 774.453 324.226 773.485 324.542C772.518 324.859 771.493 324.959 770.482 324.838" fill="#2F2E41"/>
<path d="M486.539 548.793C486.421 548.793 486.302 548.791 486.183 548.786C484.791 548.735 483.432 548.349 482.221 547.661C481.01 546.972 479.983 546.001 479.228 544.83C473.573 536.379 466.634 528.861 458.66 522.55C453.833 518.692 448.789 515.105 443.911 511.635C431.327 502.687 419.476 494.26 412.897 482.615C398.554 457.224 415.445 421.858 439.576 405.997C466.642 388.208 502.243 385.418 536.683 385.052C540.262 385.015 543.843 384.996 547.427 384.996C609.48 385.02 671.403 390.682 732.432 401.912C752.726 405.656 773.968 410.243 791.038 421.374C808.007 432.439 818.32 449.863 817.314 465.767C815.845 488.983 791.235 506.33 768.824 510.865C747.464 515.184 725.274 512.265 701.782 509.174C696.596 508.492 691.234 507.787 685.931 507.173C628.301 500.512 520.038 521.044 515.458 521.921L510.914 522.791L493.283 545.48C492.49 546.515 491.468 547.352 490.299 547.926C489.129 548.501 487.842 548.797 486.539 548.793Z" fill="#8C40D5"/>
<path d="M743.173 435.537H499.589C498.184 435.537 496.836 434.979 495.842 433.985C494.848 432.991 494.29 431.643 494.29 430.237C494.29 428.832 494.848 427.484 495.842 426.49C496.836 425.496 498.184 424.938 499.589 424.938H743.173C744.579 424.938 745.927 425.496 746.921 426.49C747.915 427.484 748.473 428.832 748.473 430.237C748.473 431.643 747.915 432.991 746.921 433.985C745.927 434.979 744.579 435.537 743.173 435.537Z" fill="white"/>
<path d="M743.173 468.068H499.589C498.893 468.07 498.203 467.934 497.559 467.668C496.916 467.403 496.33 467.013 495.837 466.522C495.344 466.03 494.953 465.446 494.685 464.803C494.418 464.16 494.28 463.47 494.279 462.774C494.279 462.078 494.415 461.388 494.681 460.744C494.947 460.101 495.337 459.516 495.829 459.023C496.321 458.53 496.906 458.14 497.549 457.873C498.192 457.606 498.882 457.469 499.578 457.469H743.173C744.577 457.471 745.924 458.03 746.916 459.024C747.908 460.017 748.466 461.364 748.466 462.768C748.466 464.173 747.908 465.52 746.916 466.513C745.924 467.507 744.577 468.066 743.173 468.068Z" fill="white"/>
<path d="M527.975 500.599H499.589C498.185 500.597 496.839 500.037 495.846 499.044C494.854 498.05 494.297 496.703 494.297 495.299C494.297 493.894 494.854 492.547 495.846 491.554C496.839 490.56 498.185 490.001 499.589 489.999H527.975C529.38 490.001 530.726 490.56 531.718 491.554C532.711 492.547 533.268 493.894 533.268 495.299C533.268 496.703 532.711 498.05 531.718 499.044C530.726 500.037 529.38 500.597 527.975 500.599V500.599Z" fill="white"/>
<path d="M763.218 518.918C764.683 518.348 766.006 517.464 767.093 516.328C768.179 515.192 769.004 513.831 769.508 512.342C770.012 510.852 770.183 509.271 770.01 507.708C769.836 506.145 769.322 504.64 768.504 503.297L795.017 408.999L771.755 406.568L753.009 500.025C750.844 501.549 749.314 503.814 748.708 506.391C748.102 508.968 748.463 511.677 749.721 514.006C750.98 516.335 753.049 518.121 755.536 519.027C758.024 519.932 760.757 519.893 763.218 518.918V518.918Z" fill="#A0616A"/>
<path d="M798.939 357.235C798.939 357.235 804.617 357.439 801.81 369.144C799.564 378.515 791.312 437.303 784.86 449.024C786.254 450.279 787.19 451.962 787.522 453.808C787.853 455.654 787.561 457.558 786.692 459.219L760.984 448.616C758.849 442.688 760.502 437.306 762.93 436.83L765.934 419.685L770.36 362.17L794.838 357.014L798.939 357.235Z" fill="#E6E6E6"/>
<path d="M659.27 511.262C658.326 510.005 657.669 508.556 657.346 507.017C657.023 505.478 657.041 503.888 657.399 502.357C657.757 500.826 658.447 499.392 659.419 498.156C660.391 496.921 661.623 495.913 663.026 495.205L690.288 401.12L711.327 411.336L677.914 500.605C678.948 503.042 679.052 505.774 678.206 508.282C677.36 510.791 675.624 512.902 673.326 514.215C671.027 515.529 668.327 515.954 665.737 515.41C663.146 514.865 660.845 513.39 659.27 511.262V511.262Z" fill="#A0616A"/>
<path d="M714.283 355.086C714.283 355.086 709.353 352.262 705.557 363.685C702.518 372.83 678.493 427.115 677.785 440.476C675.939 440.806 674.255 441.742 672.999 443.134C671.743 444.527 670.987 446.298 670.848 448.168L698.279 452.733C703.222 448.826 704.659 443.382 702.848 441.695L709.347 425.549L735.95 374.364L717.883 357.064L714.283 355.086Z" fill="#E6E6E6"/>
<path d="M916.937 696.295L168.187 696.602C167.872 696.601 167.57 696.476 167.348 696.252C167.125 696.029 167 695.727 167 695.412C167 695.096 167.125 694.794 167.348 694.571C167.57 694.348 167.872 694.222 168.187 694.221L916.937 693.914C917.252 693.915 917.554 694.04 917.777 694.264C918 694.487 918.125 694.789 918.125 695.104C918.125 695.42 918 695.722 917.777 695.945C917.554 696.168 917.252 696.294 916.937 696.295V696.295Z" fill="#CACACA"/>
<path d="M488.885 643.451C481.228 643.451 473.744 641.18 467.377 636.926C461.011 632.672 456.049 626.626 453.119 619.552C450.189 612.479 449.422 604.695 450.916 597.185C452.41 589.676 456.097 582.778 461.511 577.363C466.925 571.949 473.823 568.262 481.333 566.769C488.842 565.275 496.626 566.042 503.7 568.972C510.774 571.902 516.82 576.864 521.074 583.23C525.327 589.596 527.598 597.081 527.598 604.738C527.586 615.001 523.504 624.841 516.246 632.099C508.989 639.357 499.149 643.439 488.885 643.451ZM488.885 568.025C481.624 568.025 474.526 570.178 468.488 574.212C462.451 578.246 457.745 583.98 454.967 590.688C452.188 597.397 451.461 604.778 452.878 611.9C454.294 619.022 457.791 625.563 462.925 630.698C468.059 635.832 474.601 639.329 481.723 640.745C488.844 642.162 496.226 641.435 502.934 638.656C509.643 635.877 515.377 631.172 519.411 625.134C523.445 619.097 525.598 611.999 525.598 604.738C525.587 595.004 521.715 585.672 514.833 578.79C507.95 571.907 498.618 568.036 488.885 568.025Z" fill="white"/>
<path d="M486.061 619.81C485.981 619.81 485.901 619.808 485.82 619.804C485.11 619.769 484.416 619.582 483.784 619.254C483.153 618.926 482.601 618.466 482.164 617.904L475.862 609.802C475.464 609.29 475.171 608.705 474.999 608.08C474.827 607.456 474.78 606.803 474.86 606.16C474.94 605.517 475.146 604.896 475.467 604.333C475.787 603.769 476.215 603.275 476.727 602.877L476.954 602.7C477.465 602.302 478.05 602.009 478.675 601.837C479.3 601.665 479.953 601.617 480.596 601.698C481.239 601.778 481.86 601.984 482.424 602.305C482.987 602.625 483.482 603.054 483.88 603.566C484.198 603.974 484.601 604.31 485.06 604.548C485.52 604.787 486.026 604.924 486.544 604.949C487.061 604.974 487.578 604.887 488.059 604.694C488.54 604.501 488.973 604.207 489.33 603.831L502.126 590.322C503.027 589.373 504.267 588.82 505.575 588.784C506.883 588.749 508.152 589.234 509.103 590.132L509.312 590.332C509.783 590.778 510.161 591.311 510.425 591.903C510.689 592.495 510.834 593.133 510.852 593.781C510.869 594.429 510.759 595.074 510.527 595.679C510.295 596.284 509.946 596.837 509.501 597.308L489.642 618.269C489.182 618.756 488.626 619.144 488.011 619.409C487.395 619.674 486.732 619.81 486.061 619.81Z" fill="#8C40D5"/>
</g>
<defs>
<clipPath id="clip0_0_40">
<rect width="1167" height="885" fill="white"/>
</clipPath>
</defs>
</svg>
