<svg width="1086" height="1151" viewBox="0 0 1086 1151" fill="none" xmlns="http://www.w3.org/2000/svg">
<path d="M716.145 181.397C871.644 231.397 875.645 418.397 875.645 418.397C917.682 510.15 741.473 513.397 910.809 675.897C1080.14 838.397 461.05 1156.02 429.645 966.397C390.145 727.897 201.674 911.985 174.645 893.897C113.025 630.714 167.145 347.897 186.145 213.397C205.145 78.8971 560.645 131.397 716.145 181.397Z" fill="#8C40D5" fill-opacity="0.26"/>
<path d="M445.615 257.967C460.361 257.967 472.316 246.013 472.316 231.266C472.316 216.52 460.361 204.565 445.615 204.565C430.869 204.565 418.914 216.52 418.914 231.266C418.914 246.013 430.869 257.967 445.615 257.967Z" fill="#FD6584"/>
<path d="M505.373 218.623C504.62 216.154 503.161 213.959 501.177 212.308C499.192 210.658 496.768 209.623 494.203 209.333C494.143 209.328 494.083 209.328 494.023 209.333C493.951 209.31 493.878 209.294 493.803 209.283C484.863 208.123 474.923 210.943 468.233 217.083C465.75 219.326 463.764 222.065 462.403 225.123C461.163 223.429 459.528 222.063 457.641 221.143C455.754 220.223 453.671 219.777 451.573 219.843C448.867 220.022 446.282 221.031 444.17 222.733C442.058 224.435 440.523 226.746 439.773 229.353C439.691 229.671 439.713 230.008 439.838 230.312C439.962 230.617 440.181 230.873 440.463 231.043C441.267 231.731 442.224 232.217 443.253 232.463C445.463 232.933 447.693 233.363 449.923 233.753C454.283 234.513 458.666 235.13 463.073 235.603C465.983 235.913 468.9 236.16 471.823 236.343C477.863 236.723 483.933 236.813 489.983 236.623C492.983 236.523 495.863 236.423 498.603 235.103C500.6 234.121 502.306 232.635 503.553 230.793C504.727 229.021 505.499 227.012 505.813 224.91C506.128 222.807 505.977 220.661 505.373 218.623V218.623Z" fill="#E6E6E6"/>
<path d="M450.443 257.523C450.393 256.404 450.204 255.296 449.883 254.223C449.127 251.754 447.666 249.56 445.68 247.909C443.693 246.259 441.269 245.225 438.703 244.933C438.647 244.928 438.59 244.928 438.533 244.933C438.458 244.911 438.381 244.895 438.303 244.883C433.355 244.277 428.334 244.793 423.613 246.393C416.353 248.823 409.983 253.723 406.913 260.723C405.672 259.028 404.036 257.661 402.147 256.741C400.258 255.821 398.173 255.375 396.073 255.443C393.367 255.622 390.782 256.631 388.67 258.333C386.558 260.035 385.023 262.346 384.273 264.953C384.195 265.271 384.22 265.606 384.344 265.91C384.468 266.213 384.685 266.47 384.963 266.643C385.769 267.329 386.724 267.815 387.753 268.063C389.973 268.533 392.193 268.963 394.433 269.353C398.793 270.113 403.173 270.729 407.573 271.203C416.512 272.162 425.507 272.503 434.493 272.223C437.483 272.123 440.373 272.023 443.113 270.703C445.107 269.721 446.81 268.235 448.053 266.393C449.806 263.781 450.646 260.662 450.443 257.523Z" fill="#E6E6E6"/>
<path d="M648.13 594.48H623.79V214.51C622.15 213.3 620.5 212.1 618.83 210.93C618.5 210.7 618.17 210.47 617.84 210.24C598.589 196.775 577.765 185.713 555.83 177.3L551.11 242.4L551.11 242.404H520.74V166.39C518.76 165.9 516.78 165.44 514.78 165.01V242.404H400.1V163C398.11 163.37 396.12 163.75 394.14 164.16V242.404H362.77L362.77 242.4L357.82 174.13C336.473 181.529 316.073 191.418 297.04 203.59C296.38 204.01 295.72 204.43 295.06 204.87C293.73 205.73 292.4 206.61 291.09 207.5V594.48H256.82C252.435 594.477 248.117 595.55 244.244 597.605C240.37 599.659 237.06 602.633 234.603 606.264C232.146 609.896 230.618 614.074 230.152 618.434C229.686 622.794 230.296 627.201 231.93 631.27C232.42 632.5 233.005 633.691 233.68 634.83C234.551 636.316 235.563 637.716 236.7 639.01C239.212 641.873 242.307 644.167 245.776 645.738C249.246 647.309 253.011 648.121 256.82 648.12H648.13C655.243 648.12 662.065 645.294 667.095 640.265C672.124 635.235 674.95 628.413 674.95 621.3C674.95 614.187 672.124 607.365 667.095 602.335C662.065 597.306 655.243 594.48 648.13 594.48L648.13 594.48ZM544.57 332.782L525.64 594.48H388.24L369.31 332.782H544.57ZM550.68 248.363L546.01 312.919H520.74V248.363H550.68ZM514.78 248.363V312.919H469.148C468.234 311.126 466.842 309.62 465.126 308.569C463.411 307.517 461.437 306.96 459.425 306.96H453.466C451.454 306.96 449.48 307.517 447.765 308.569C446.049 309.62 444.657 311.126 443.743 312.919H400.1V248.363H514.78ZM394.14 312.919H367.87L363.2 248.363H394.14V312.919Z" fill="#F2F2F2"/>
<path d="M232.368 637.727C241.055 648.02 250.451 657.694 260.488 666.677L640.068 667.677C650.104 658.694 659.501 649.02 668.188 638.727L232.368 637.727Z" fill="#3F3D56"/>
<path d="M424.058 540.917V643.477H495.908V540.917C495.909 540.179 495.674 539.46 495.236 538.866C494.799 538.272 494.183 537.834 493.478 537.617C493.146 537.507 492.798 537.453 492.448 537.457H427.528C427.073 537.456 426.622 537.545 426.201 537.718C425.78 537.891 425.398 538.146 425.076 538.467C424.754 538.789 424.498 539.171 424.323 539.591C424.148 540.011 424.058 540.462 424.058 540.917V540.917ZM452.098 576.157C452.117 574.135 452.933 572.202 454.37 570.78C455.806 569.357 457.746 568.558 459.768 568.558C461.79 568.558 463.73 569.357 465.166 570.78C466.602 572.202 467.419 574.135 467.438 576.157V588.057C467.428 590.084 466.615 592.025 465.178 593.455C463.74 594.885 461.795 595.688 459.768 595.688C457.74 595.688 455.795 594.885 454.358 593.455C452.921 592.025 452.108 590.084 452.098 588.057V576.157Z" fill="#2F2E41"/>
<path d="M423.838 640.197V650.087C423.84 650.599 424.043 651.09 424.404 651.453C424.766 651.816 425.256 652.022 425.768 652.027H494.198C494.711 652.024 495.202 651.819 495.563 651.455C495.925 651.091 496.128 650.599 496.128 650.087V640.197H423.838Z" fill="#3F3D56"/>
<path d="M311.028 386.397V573.657C311.03 576.043 311.979 578.331 313.666 580.019C315.353 581.706 317.641 582.655 320.028 582.657H597.528C599.914 582.655 602.202 581.706 603.89 580.019C605.577 578.331 606.526 576.043 606.528 573.657V386.397C606.522 384.012 605.572 381.727 603.885 380.042C602.198 378.357 599.912 377.41 597.528 377.407H320.028C317.644 377.41 315.358 378.357 313.671 380.042C311.984 381.727 311.034 384.012 311.028 386.397V386.397Z" fill="#3F3D56"/>
<path d="M317.538 388.727V571.347C317.54 572.622 318.048 573.844 318.949 574.745C319.851 575.647 321.073 576.154 322.348 576.157H595.218C596.493 576.154 597.715 575.647 598.617 574.745C599.518 573.844 600.026 572.622 600.028 571.347V388.727C600.028 387.45 599.521 386.226 598.62 385.322C597.718 384.418 596.494 383.909 595.218 383.907H322.348C321.071 383.909 319.848 384.418 318.946 385.322C318.044 386.226 317.538 387.45 317.538 388.727V388.727Z" fill="#8C40D5"/>
<path d="M373.178 654.357C373.456 654.705 373.809 654.986 374.211 655.178C374.612 655.37 375.053 655.469 375.498 655.467H537.838C538.282 655.466 538.72 655.367 539.121 655.175C539.522 654.984 539.875 654.706 540.154 654.361C540.434 654.016 540.633 653.614 540.738 653.182C540.842 652.75 540.849 652.301 540.758 651.867L538.238 639.897C538.134 639.408 537.909 638.954 537.584 638.575C537.259 638.196 536.844 637.905 536.378 637.727C536.04 637.594 535.681 637.526 535.318 637.527H378.008C377.645 637.526 377.286 637.594 376.948 637.727C376.482 637.904 376.067 638.196 375.742 638.575C375.417 638.954 375.192 639.408 375.088 639.897L372.568 651.867C372.478 652.301 372.487 652.75 372.592 653.18C372.698 653.611 372.898 654.013 373.178 654.357Z" fill="#2F2E41"/>
<path d="M378.008 640.027C377.959 640.026 377.91 640.035 377.863 640.052C377.784 640.08 377.712 640.126 377.655 640.187C377.598 640.249 377.557 640.324 377.536 640.405L375.014 652.382C375.001 652.451 375.003 652.522 375.021 652.591C375.038 652.659 375.071 652.723 375.116 652.777L375.127 652.791C375.17 652.847 375.227 652.893 375.291 652.923C375.356 652.954 375.427 652.969 375.498 652.966H537.838C537.909 652.967 537.979 652.952 538.043 652.922C538.107 652.891 538.164 652.847 538.208 652.792C538.255 652.738 538.29 652.674 538.308 652.605C538.326 652.536 538.329 652.464 538.314 652.394L535.792 640.411C535.773 640.332 535.736 640.26 535.683 640.199C535.63 640.138 535.563 640.091 535.488 640.062C535.434 640.039 535.376 640.027 535.318 640.027H378.008Z" fill="white"/>
<path d="M331.121 409.063H586.445C586.71 409.057 586.963 408.948 587.148 408.758C587.334 408.568 587.438 408.313 587.438 408.048C587.438 407.783 587.334 407.528 587.148 407.338C586.963 407.148 586.71 407.039 586.445 407.033H331.121C330.856 407.039 330.603 407.148 330.418 407.338C330.232 407.528 330.128 407.783 330.128 408.048C330.128 408.313 330.232 408.568 330.418 408.758C330.603 408.948 330.856 409.057 331.121 409.063Z" fill="#3F3D56"/>
<path d="M569.064 401.849C572.351 401.849 575.015 399.125 575.015 395.765C575.015 392.406 572.351 389.682 569.064 389.682C565.778 389.682 563.114 392.406 563.114 395.765C563.114 399.125 565.778 401.849 569.064 401.849Z" fill="#3F3D56"/>
<path d="M548.508 401.849C551.795 401.849 554.459 399.125 554.459 395.765C554.459 392.406 551.795 389.682 548.508 389.682C545.222 389.682 542.558 392.406 542.558 395.765C542.558 399.125 545.222 401.849 548.508 401.849Z" fill="#3F3D56"/>
<path d="M527.952 401.849C531.239 401.849 533.903 399.125 533.903 395.765C533.903 392.406 531.239 389.682 527.952 389.682C524.666 389.682 522.002 392.406 522.002 395.765C522.002 399.125 524.666 401.849 527.952 401.849Z" fill="#3F3D56"/>
<path d="M342.409 392.297C342.409 392.44 342.436 392.583 342.491 392.716C342.545 392.849 342.625 392.97 342.726 393.072C342.828 393.175 342.948 393.256 343.081 393.311C343.213 393.367 343.355 393.396 343.499 393.397H358.099C358.388 393.39 358.662 393.271 358.864 393.064C359.066 392.858 359.179 392.58 359.179 392.292C359.179 392.003 359.066 391.726 358.864 391.519C358.662 391.313 358.388 391.193 358.099 391.187H343.499C343.208 391.19 342.93 391.309 342.725 391.517C342.521 391.725 342.407 392.005 342.409 392.297V392.297Z" fill="#3F3D56"/>
<path d="M342.409 396.447C342.409 396.59 342.436 396.733 342.491 396.866C342.545 396.999 342.625 397.12 342.726 397.223C342.828 397.325 342.948 397.406 343.08 397.461C343.213 397.517 343.355 397.546 343.499 397.547H358.099C358.388 397.54 358.663 397.421 358.865 397.215C359.067 397.008 359.18 396.731 359.18 396.442C359.18 396.153 359.067 395.875 358.865 395.669C358.663 395.462 358.388 395.343 358.099 395.337H343.499C343.208 395.34 342.93 395.459 342.725 395.667C342.521 395.875 342.407 396.155 342.409 396.447V396.447Z" fill="#3F3D56"/>
<path d="M342.409 400.587C342.407 400.878 342.521 401.159 342.725 401.366C342.93 401.574 343.208 401.693 343.499 401.697H358.099C358.388 401.69 358.662 401.571 358.864 401.364C359.066 401.158 359.179 400.88 359.179 400.592C359.179 400.303 359.066 400.026 358.864 399.819C358.662 399.613 358.388 399.493 358.099 399.487H343.499C343.355 399.487 343.213 399.516 343.08 399.572C342.948 399.628 342.828 399.709 342.726 399.811C342.625 399.913 342.545 400.034 342.491 400.167C342.436 400.3 342.409 400.443 342.409 400.587Z" fill="#3F3D56"/>
<path d="M548.401 440.057H369.164C366.809 440.06 364.552 440.997 362.887 442.662C361.222 444.327 360.285 446.584 360.283 448.939V536.176C360.285 538.53 361.222 540.788 362.887 542.453C364.552 544.118 366.809 545.055 369.164 545.057H548.401C550.756 545.055 553.014 544.118 554.679 542.453C556.344 540.788 557.28 538.53 557.283 536.176V448.939C557.28 446.584 556.343 444.327 554.678 442.662C553.013 440.997 550.756 440.06 548.401 440.057ZM555.283 448.939V474.39H492.283V442.057H548.401C550.226 442.059 551.975 442.785 553.265 444.075C554.555 445.365 555.281 447.114 555.283 448.939H555.283ZM427.283 508.724V476.39H490.283V508.724H427.283ZM490.283 510.724V543.057H427.283V510.724H490.283ZM425.283 508.724H362.283V476.39H425.283V508.724ZM427.283 474.39V442.057H490.283V474.39H427.283ZM492.283 476.39H555.283V508.724H492.283V476.39ZM369.164 442.057H425.283V474.39H362.283V448.939C362.285 447.114 363.01 445.365 364.301 444.075C365.591 442.785 367.34 442.059 369.164 442.057V442.057ZM362.283 536.176V510.724H425.283V543.057H369.164C367.34 543.055 365.59 542.33 364.3 541.039C363.01 539.749 362.285 538 362.283 536.176V536.176ZM548.401 543.057H492.283V510.724H555.283V536.176C555.281 538 554.555 539.749 553.265 541.039C551.975 542.33 550.226 543.055 548.401 543.057H548.401Z" fill="#3F3D56"/>
<path d="M449.673 462.206C448.082 459.575 446.198 456.766 443.246 455.907C439.828 454.912 436.316 456.889 433.338 458.839C424.43 464.671 415.852 470.991 407.643 477.77L407.652 477.872L426.826 476.55C431.444 476.232 436.22 475.869 440.301 473.685C441.849 472.856 443.359 471.749 445.113 471.671C447.293 471.576 449.194 473.098 450.688 474.689C459.525 484.099 462.082 498.488 471.995 506.755C465.744 491.339 458.28 476.442 449.673 462.206V462.206Z" fill="white"/>
<path d="M503.99 542.017C503.013 540.783 502.613 540.494 501.649 539.248C493.801 529.098 486.424 518.604 479.519 507.768C474.828 500.408 470.371 492.907 466.146 485.264C464.134 481.631 462.178 477.969 460.276 474.279C458.801 471.418 457.359 468.539 455.949 465.644C455.546 464.817 455.154 463.986 454.765 463.153C453.846 461.195 452.945 459.227 451.977 457.295C450.977 454.976 449.446 452.925 447.508 451.306C446.586 450.606 445.484 450.182 444.331 450.084C442.706 450.093 441.115 450.549 439.731 451.401C429.26 456.906 419.487 463.646 410.62 471.477C401.739 479.276 393.801 488.087 386.968 497.731C386.759 498.03 386.265 497.744 386.476 497.444C387.307 496.269 388.154 495.107 389.018 493.957C399.758 479.672 412.928 467.388 427.925 457.666C430.448 456.031 433.018 454.473 435.636 452.991C436.956 452.244 438.281 451.506 439.629 450.814C440.92 450.057 442.369 449.608 443.863 449.502C449 449.422 451.66 455.24 453.487 459.155C454.061 460.387 454.642 461.615 455.23 462.839C457.453 467.488 459.761 472.094 462.155 476.658C463.632 479.475 465.142 482.276 466.684 485.061C471.482 493.733 476.583 502.229 481.985 510.549C489.141 521.571 496.24 531.307 504.393 541.614C504.617 541.899 504.216 542.306 503.99 542.017Z" fill="white"/>
<path d="M410.112 468.604C409.814 468.271 409.517 467.938 409.217 467.606C406.848 464.986 404.306 462.396 401.053 460.894C399.501 460.156 397.808 459.763 396.09 459.744C394.318 459.793 392.57 460.174 390.938 460.868C390.162 461.178 389.404 461.529 388.656 461.904C387.803 462.334 386.964 462.792 386.13 463.254C384.563 464.121 383.017 465.026 381.491 465.969C378.454 467.845 375.513 469.865 372.667 472.028C371.192 473.15 369.747 474.308 368.332 475.504C367.016 476.614 365.727 477.754 364.465 478.924C364.195 479.173 363.792 478.77 364.062 478.521C364.395 478.211 364.731 477.903 365.068 477.599C366.018 476.739 366.984 475.896 367.965 475.07C369.754 473.56 371.59 472.109 373.471 470.716C376.397 468.549 379.424 466.528 382.552 464.655C384.114 463.72 385.699 462.823 387.305 461.967C387.79 461.708 388.28 461.455 388.776 461.216C389.902 460.648 391.072 460.172 392.275 459.792C393.978 459.241 395.78 459.064 397.558 459.273C399.275 459.522 400.929 460.095 402.433 460.959C405.627 462.744 408.104 465.505 410.515 468.199C410.759 468.473 410.357 468.878 410.112 468.604Z" fill="white"/>
<path d="M475.557 495.753L483.211 492.954L487.011 491.564C488.239 491.07 489.491 490.638 490.763 490.272C491.875 489.954 493.055 489.969 494.159 490.315C495.143 490.679 496.043 491.238 496.807 491.957C497.588 492.676 498.314 493.451 498.98 494.277C499.807 495.271 500.622 496.276 501.441 497.277C504.82 501.41 508.178 505.561 511.513 509.73C514.848 513.898 518.161 518.084 521.451 522.288C524.75 526.503 528.025 530.735 531.279 534.984C531.677 535.505 532.075 536.026 532.473 536.547C532.693 536.835 533.188 536.551 532.966 536.259C529.688 531.967 526.388 527.692 523.066 523.435C519.735 519.167 516.381 514.918 513.004 510.687C509.627 506.456 506.227 502.243 502.804 498.049C501.952 497.004 501.098 495.96 500.242 494.918C499.52 494.038 498.807 493.149 498.015 492.331C497.342 491.519 496.514 490.847 495.58 490.356C494.647 489.864 493.625 489.561 492.575 489.464C491.302 489.509 490.048 489.784 488.874 490.278C487.594 490.741 486.318 491.212 485.04 491.68L477.333 494.499L475.406 495.203C475.064 495.328 475.211 495.88 475.557 495.753V495.753Z" fill="white"/>
<path d="M400.045 464.191C398.079 463.222 395.889 462.794 393.702 462.95C391.515 463.106 389.409 463.842 387.601 465.081C394.418 466.257 401.161 467.831 407.795 469.794C405.04 468.18 402.885 465.651 400.045 464.191Z" fill="white"/>
<path d="M387.562 465.074L386.813 465.683C387.067 465.47 387.33 465.27 387.601 465.081L387.562 465.074Z" fill="white"/>
<path d="M496.519 495.781C495.849 494.794 494.916 494.014 493.824 493.531L492.772 493.573C500.781 507.725 511.598 520.091 524.559 529.913L496.519 495.781Z" fill="white"/>
<path d="M491.597 480.286C494.943 480.286 497.656 477.573 497.656 474.227C497.656 470.881 494.943 468.168 491.597 468.168C488.251 468.168 485.538 470.881 485.538 474.227C485.538 477.573 488.251 480.286 491.597 480.286Z" fill="white"/>
<path d="M579.522 541.557C580.715 541.556 581.859 541.081 582.702 540.237C583.546 539.394 584.02 538.25 584.022 537.057V444.057C584.022 442.864 583.548 441.719 582.704 440.875C581.86 440.031 580.715 439.557 579.522 439.557C578.328 439.557 577.184 440.031 576.34 440.875C575.496 441.719 575.022 442.864 575.022 444.057V537.057C575.024 538.25 575.498 539.394 576.342 540.237C577.186 541.081 578.329 541.556 579.522 541.557V541.557Z" fill="#3F3D56"/>
<path d="M579.522 541.557C580.715 541.556 581.859 541.081 582.702 540.237C583.546 539.394 584.02 538.25 584.022 537.057V517.337C583.504 516.631 582.826 516.056 582.044 515.66C581.263 515.264 580.398 515.057 579.522 515.057C578.646 515.057 577.781 515.264 577 515.66C576.218 516.056 575.54 516.631 575.022 517.337V537.057C575.024 538.25 575.498 539.394 576.342 540.237C577.186 541.081 578.329 541.556 579.522 541.557V541.557Z" fill="#2F2E41"/>
<path d="M579.522 522.557C580.805 522.555 582.035 522.045 582.942 521.138C583.849 520.231 584.36 519.001 584.362 517.718V496.509C583.804 495.749 583.075 495.131 582.235 494.705C581.394 494.279 580.465 494.057 579.522 494.057C578.579 494.057 577.65 494.279 576.809 494.705C575.969 495.131 575.24 495.749 574.682 496.509V517.718C574.684 519.001 575.195 520.231 576.102 521.138C577.009 522.045 578.239 522.555 579.522 522.557V522.557Z" fill="#8C40D5"/>
<path d="M579.522 518.701C580.458 518.7 581.355 518.327 582.016 517.666C582.678 517.004 583.05 516.107 583.052 515.171V499.702C582.645 499.148 582.114 498.697 581.5 498.386C580.887 498.076 580.209 497.914 579.522 497.914C578.834 497.914 578.157 498.076 577.543 498.386C576.93 498.697 576.399 499.148 575.992 499.702V515.171C575.993 516.107 576.366 517.004 577.027 517.666C577.689 518.327 578.586 518.7 579.522 518.701V518.701Z" fill="#3F3D56"/>
<path d="M440.698 646.036C439.908 645.328 439.431 644.336 439.372 643.277C439.313 642.218 439.676 641.179 440.381 640.388L479.697 596.396C480.047 596.004 480.471 595.685 480.944 595.458C481.418 595.23 481.931 595.097 482.456 595.068C482.98 595.038 483.505 595.113 484.001 595.286C484.497 595.46 484.954 595.729 485.345 596.079C485.737 596.429 486.056 596.853 486.284 597.326C486.512 597.799 486.644 598.313 486.674 598.837C486.703 599.362 486.629 599.887 486.455 600.383C486.282 600.879 486.012 601.335 485.662 601.727L446.347 645.719C445.639 646.509 444.647 646.986 443.588 647.045C442.529 647.105 441.49 646.742 440.698 646.036Z" fill="#8C40D5"/>
<path d="M766.85 718.466C766.85 725.756 765.13 731.336 765.34 735.796C753.545 740.945 741.418 745.294 729.04 748.816C727.64 749.216 726.24 749.596 724.83 749.976C717.2 726.616 709.56 705.226 706.55 702.956C699.66 697.786 696.21 719.176 696.21 714.006C696.21 708.836 699.66 708.836 691.05 701.946C682.43 695.056 687.6 664.046 687.6 664.046L675.54 633.036L689.03 583.576L706.55 519.326H723.78C723.78 519.326 724.29 519.696 725.14 520.386C729.45 523.906 742.45 535.666 741.01 548.616C740.58 552.476 741.54 563.696 743.21 578.636C748.29 623.746 759.96 672.786 759.96 685.726C759.96 702.956 766.85 708.126 766.85 718.466Z" fill="#E6E6E6"/>
<path d="M752.402 578.467C752.382 578.417 752.372 578.377 752.352 578.337C751.966 577.297 751.515 576.282 751.002 575.297C748.092 569.827 751.172 561.427 747.892 552.147C742.592 537.107 736.132 528.237 726.662 520.287C726.382 520.047 726.102 519.817 725.812 519.577L725.802 519.567C719.482 514.377 711.862 509.527 702.402 503.487C700.432 502.227 698.372 500.917 696.232 499.537C693.472 497.767 693.622 491.867 693.782 485.627C693.962 478.697 694.152 471.517 690.752 467.037L690.532 466.747L690.182 466.657C678.524 464.352 666.635 463.435 654.762 463.927H654.752C649.711 464.115 644.705 464.849 639.822 466.117C639.462 466.217 639.102 466.317 638.752 466.437C638.482 466.507 638.212 466.597 637.942 466.687L637.722 466.767L637.552 466.927C634.262 470.217 633.502 476.117 633.142 482.267V482.277C633.072 483.397 633.012 484.517 632.962 485.637C632.682 491.617 632.422 497.267 630.222 499.717C625.315 505.277 619.383 509.84 612.752 513.157C602.422 518.257 594.252 518.097 594.132 518.097L593.182 518.067L593.092 519.007C586.232 532.077 586.492 565.797 586.282 601.907C586.272 603.917 586.258 605.937 586.242 607.967C586.122 624.787 585.802 641.897 584.542 657.487C583.992 664.187 583.282 670.597 582.332 676.587C577.712 705.757 556.782 681.537 546.772 700.947C547.101 702.856 547.655 704.719 548.422 706.497C549.572 707.177 550.752 707.837 551.922 708.497C557.112 711.387 562.398 714.084 567.782 716.587C568.082 716.727 568.382 716.867 568.682 716.997C578.556 721.566 588.733 725.449 599.142 728.617C601.172 729.237 603.202 729.827 605.252 730.387C623.385 735.393 642.057 738.19 660.862 738.717C660.938 738.709 661.015 738.705 661.092 738.707C683.331 738.092 705.424 734.908 726.932 729.217C727.232 729.137 727.532 729.057 727.832 728.977C729.242 728.597 730.642 728.217 732.042 727.817C744.42 724.295 756.547 719.946 768.342 714.797C768.354 715.237 768.397 715.674 768.472 716.107C768.482 716.249 768.502 716.389 768.532 716.527C768.552 716.367 768.572 716.207 768.582 716.047C768.642 715.577 768.692 715.097 768.742 714.617C774.862 654.937 762.152 604.267 752.402 578.467Z" fill="#3F3D56"/>
<path d="M614.968 432.2C621.071 443.361 630.794 452.11 642.534 457.007C654.274 461.904 667.332 462.657 679.557 459.141C691.782 455.626 702.446 448.052 709.791 437.667C717.137 427.281 720.726 414.704 719.969 402.006C719.212 389.308 714.152 377.246 705.624 367.808C697.097 358.369 685.608 352.116 673.052 350.079C660.496 348.041 647.62 350.341 636.545 356.599C625.47 362.857 616.857 372.7 612.123 384.507C611.867 385.147 611.636 385.788 611.406 386.455C608.73 393.898 607.663 401.824 608.277 409.71C608.891 417.595 611.172 425.261 614.968 432.2V432.2Z" fill="#FFB6B6"/>
<path d="M606.921 386.455C609.33 379.714 608.279 383.225 610.714 376.511C609.125 382.457 611.636 385.788 611.406 386.455H678.064V347.705C658.535 339.966 639.442 333.379 627.91 347.705C617.633 347.706 607.777 351.788 600.511 359.055C593.244 366.322 589.161 376.178 589.161 386.455H606.921Z" fill="#2F2E41"/>
<path d="M630.55 494.168C630.601 493.451 630.678 492.707 630.78 491.99C631.498 486.71 633.292 481.636 635.112 476.613C637.034 471.206 638.981 465.772 640.929 460.365C638.421 470.181 639.186 480.547 643.107 489.888C654.358 481.124 647.259 461.083 661.969 461.083C697.336 461.083 733.727 432.405 733.727 397.013C733.727 361.647 718.556 335.199 683.189 335.199C647.797 335.199 619.094 351.396 618.402 386.762C661.969 397.013 622.323 490.58 630.55 494.168Z" fill="#2F2E41"/>
<path d="M729.308 391.592C751.954 391.592 770.312 373.234 770.312 350.588C770.312 327.942 751.954 309.583 729.308 309.583C706.662 309.583 688.303 327.942 688.303 350.588C688.303 373.234 706.662 391.592 729.308 391.592Z" fill="#2F2E41"/>
<path d="M793.232 585.747C793.092 587.857 792.969 590.104 792.862 592.487C790.742 637.377 792.572 697.807 778.282 730.597C775.082 732.347 771.849 734.021 768.582 735.617C768.452 735.677 768.332 735.737 768.222 735.797C767.342 736.227 766.462 736.647 765.582 737.047C765.55 737.075 765.512 737.095 765.472 737.107C755.808 741.673 745.849 745.586 735.662 748.817C734.412 749.217 733.152 749.597 731.892 749.977C731.622 750.057 731.352 750.137 731.082 750.217C711.889 755.893 692.047 759.083 672.042 759.707C671.002 759.737 669.982 759.757 668.992 759.777C668.642 759.787 668.302 759.797 667.962 759.797C666.842 759.807 665.732 759.817 664.612 759.817C662.352 759.817 660.102 759.784 657.862 759.717C639.058 759.19 620.386 756.393 602.252 751.387C600.202 750.827 598.172 750.237 596.142 749.617C585.734 746.449 575.556 742.566 565.682 737.997C565.382 737.867 565.082 737.727 564.782 737.587C559.402 735.087 554.115 732.391 548.922 729.497C547.752 728.837 546.572 728.177 545.422 727.497C544.655 725.719 544.101 723.856 543.772 721.947C541.502 711.037 539.682 718.397 538.382 695.697C537.192 674.887 536.432 654.017 536.152 642.087C536.062 638.907 536.032 636.357 536.022 634.617C537.082 627.037 554.122 618.437 578.972 610.267C581.322 609.497 583.752 608.727 586.242 607.967C592.962 605.897 600.142 603.867 607.642 601.907C626.742 596.907 647.952 592.317 669.002 588.527C679.392 586.667 689.742 584.997 699.792 583.577C717.422 581.077 734.102 579.347 748.372 578.637C749.742 578.567 751.082 578.507 752.402 578.467C753.822 578.407 755.212 578.367 756.572 578.337C777.132 577.887 791.172 580.027 793.232 585.747Z" fill="#2F2E41"/>
<path opacity="0.2" d="M793.232 585.747C793.092 587.857 792.969 590.104 792.862 592.487C777.282 575.707 609.442 650.667 538.382 695.697C537.192 674.887 536.432 654.017 536.152 642.087C536.062 638.907 536.032 636.357 536.022 634.617C537.082 627.037 554.122 618.437 578.972 610.267C581.322 609.497 583.752 608.727 586.242 607.967C592.962 605.897 600.142 603.867 607.642 601.907C626.742 596.907 647.952 592.317 669.002 588.527C679.392 586.667 689.742 584.997 699.792 583.577C717.422 581.077 734.102 579.347 748.372 578.637C749.742 578.567 751.082 578.507 752.402 578.467C753.822 578.407 755.212 578.367 756.572 578.337C777.132 577.887 791.172 580.027 793.232 585.747Z" fill="black"/>
<path d="M451.901 637.76C453.475 639.744 455.464 641.359 457.73 642.492C459.996 643.624 462.482 644.245 465.014 644.312C467.545 644.38 470.061 643.891 472.384 642.881C474.706 641.871 476.779 640.364 478.456 638.466L535.404 661.855L529.259 630.458L476.122 613.061C472.747 610.455 468.533 609.178 464.279 609.471C460.025 609.764 456.026 611.608 453.041 614.652C450.055 617.697 448.29 621.731 448.08 625.99C447.87 630.248 449.229 634.437 451.901 637.76V637.76Z" fill="#FFB6B6"/>
<path d="M641.335 507.02L641.023 506.987L607.814 509.398C603.598 509.704 599.495 510.903 595.778 512.916C592.06 514.929 588.814 517.709 586.253 521.073C585.063 522.631 584.033 524.306 583.178 526.07L583.17 526.076C580.307 531.933 579.444 538.568 580.713 544.963L596.348 623.666L558.73 620.248L544.998 622.595L528.793 616.057L495.541 616.623L494.771 619.172L487.795 642.295L487.248 644.112L538.023 676.109L552.744 671.63L559.679 676.958L560.012 676.966L573.764 677.238L632.412 678.388L648.443 649.987L650.948 645.534C669.566 603.825 674.16 574.708 672.703 554.649C671.939 544.05 669.489 535.993 666.522 529.922C657.349 511.159 641.981 507.178 641.335 507.02Z" fill="#3F3D56"/>
<path d="M734.494 386.993C726.718 385.244 719.509 381.562 713.535 376.285C707.561 371.009 703.016 364.31 700.321 356.81C697.915 349.832 697.007 342.17 692.969 335.959C699.121 327.511 704.054 318.24 707.623 308.418C709.005 304.616 712.241 297.713 706.755 295.621C702.385 293.955 697.42 297.977 694.829 301.151C692.861 303.556 691.45 306.367 690.696 309.382C689.803 305.436 688.909 301.491 688.016 297.546C687.902 297.168 687.647 296.848 687.303 296.652C686.96 296.457 686.554 296.402 686.171 296.499C678.849 297.747 673.539 304.526 672.616 311.667C672.113 315.344 672.949 319.078 674.973 322.189C677.325 325.767 680.769 328.332 684.046 330.999C687.532 333.835 690.487 336.855 692.361 341.002C694.308 345.312 695.185 350.028 696.477 354.554C698.93 363.246 703.681 371.116 710.232 377.334C716.782 383.552 724.888 387.888 733.697 389.885C735.578 390.297 736.382 387.405 734.494 386.993ZM693.147 315.277C692.912 311.509 693.907 307.766 695.984 304.612C697.024 303.014 698.327 301.602 699.838 300.438C701.27 299.344 703.383 297.895 705.278 298.297C707.736 298.818 706.747 301.562 706.225 303.216C705.536 305.399 704.779 307.558 703.953 309.695C702.345 313.843 700.478 317.887 698.363 321.802C697.265 323.84 696.092 325.835 694.867 327.797C694.022 324.067 693.178 320.338 692.333 316.609C692.599 316.511 692.824 316.326 692.972 316.085C693.12 315.843 693.182 315.558 693.147 315.277V315.277ZM675.627 315.874C675.137 312.466 675.848 308.994 677.64 306.054C679.431 303.114 682.191 300.89 685.444 299.763C687.826 310.277 690.207 320.791 692.588 331.304C692.096 332.029 691.589 332.743 691.081 333.456C690.948 333.303 690.827 333.145 690.688 332.994C685.694 327.559 676.985 323.854 675.627 315.874V315.874Z" fill="#8C40D5"/>
</svg>
